<!--?xml version="1.0" standalone="no"?-->
              <svg id="sw-js-blob-svg" viewBox="0 0 100 100" xmlns="http://www.w3.org/2000/svg" version="1.1">
                    <defs> 
                        <linearGradient id="sw-gradient" x1="0" x2="1" y1="1" y2="0">
                            <stop id="stop1" stop-color="rgba(248, 117, 55, 1)" offset="0%"></stop>
                            <stop id="stop2" stop-color="rgba(251, 168, 31, 1)" offset="100%"></stop>
                        </linearGradient>
                    </defs>
                <path fill="url(#sw-gradient)" d="M21.9,-28.9C25.8,-27.4,24.3,-17.4,25.8,-9.2C27.2,-1,31.6,5.3,32.4,12.8C33.1,20.3,30.2,28.9,24.2,28.4C18.2,27.9,9.1,18.4,2.4,15.1C-4.3,11.7,-8.5,14.6,-9.5,13.5C-10.5,12.3,-8.2,7.1,-12,2.3C-15.8,-2.6,-25.7,-7.1,-25.1,-7.9C-24.5,-8.7,-13.4,-5.9,-7.4,-6.6C-1.5,-7.4,-0.7,-11.7,4.2,-17.4C9.1,-23.2,18.1,-30.3,21.9,-28.9Z" width="100%" height="100%" transform="translate(50 50)" stroke-width="0" style="transition: all 0.3s ease 0s;" stroke="url(#sw-gradient)"></path>
              </svg>